# xmcd CD database file
#
# Track frame offsets:
#	150
#	26526
#	73180
#	91791
#	154345
#
# Disc length: 2311 seconds
#
# Revision: 3
# Processed by: cddbd v1.5.2PL0 Copyright (c) Steve Scherf et al.
# Submitted via: CDex 1.51
#
DISCID=38090505
DTITLE=Herbie Hancock - Warner Jazz - Les Incontournables
DYEAR=2007
DGENRE=Jazz
TTITLE0=Wiggle Waggle
TTITLE1=You'll Know When You Get There
TTITLE2=Oh! Oh! Here He Comes
TTITLE3=Water Torture
TTITLE4=Jessica
EXTD=YEAR: 2007
EXTT0=
EXTT1=
EXTT2=
EXTT3=
EXTT4=
PLAYORDER=
